# Wavefront OBJ exported by MilkShape 3D

mtllib JumpRamp.mtl

v 12.269043 0.728516 7.910645
v 9.114746 2.549316 5.564941
v 9.114746 2.549316 7.912598
v 9.114746 2.549316 -5.577637
v 12.269043 0.728516 -7.915039
v 9.114746 2.549316 -7.919434
v -11.479004 1.955566 7.906250
v 11.354492 0.240234 7.906250
v 8.625000 1.955566 7.906250
v 11.354492 -3.165527 7.906250
v -11.479004 -3.165527 7.906250
v -10.862793 14.083008 -7.955566
v -11.739746 14.306641 -5.577637
v -10.862793 14.083008 -5.577637
v -11.739746 14.306641 -7.955566
v 11.354492 0.240234 -7.971680
v -11.479004 1.955566 -7.981445
v 8.625000 1.955566 -7.955566
v 11.354492 -3.165527 -7.971680
v -0.868164 8.312988 -5.577637
v -10.862793 14.083008 -7.955566
v -10.862793 14.083008 -5.577637
v -0.868164 8.312988 -7.955566
v -0.868164 8.312988 -5.577637
v 9.114746 2.549316 -7.919434
v -0.868164 8.312988 -7.955566
v 9.114746 2.549316 -5.577637
v -10.862793 14.083008 7.931152
v -11.739746 14.306641 5.571289
v -11.739746 14.306641 7.931152
v -10.862793 14.083008 5.564941
v 11.623535 -0.153809 7.910645
v 12.269043 0.728516 -7.915039
v 12.269043 0.728516 7.910645
v 11.623535 -0.153809 -7.915039
v -0.868164 8.312988 5.564941
v -10.862793 14.083008 7.931152
v -0.868164 8.312988 7.931152
v -10.862793 14.083008 5.564941
v -11.479004 13.298828 -7.981445
v -11.479004 1.955566 7.906250
v -11.479004 13.298828 7.906250
v -11.479004 1.955566 -7.981445
v -0.868164 8.312988 5.564941
v 9.114746 2.549316 7.912598
v 9.114746 2.549316 5.564941
v -0.868164 8.312988 7.931152
v 11.354492 0.240234 -7.971680
v 11.354492 -3.165527 7.906250
v 11.354492 -3.165527 -7.971680
v 11.354492 0.240234 7.906250
v -11.479004 1.955566 -7.981445
v -11.479004 -3.165527 7.906250
v -11.479004 1.955566 7.906250
v -11.479004 -3.165527 -7.981445
v -11.479004 1.955566 -7.981445
v -11.479004 13.298828 -7.981445
v 8.625000 1.955566 -7.955566
v -11.479004 -3.165527 -7.981445
v -11.479004 13.298828 7.906250
v -11.479004 1.955566 7.906250
v 8.625000 1.955566 7.906250
v -10.862793 14.083008 5.564941
v -11.739746 14.306641 -5.577637
v -11.739746 14.306641 5.571289
v -10.862793 14.083008 -5.577637
v -0.868164 8.312988 -5.577637
v -12.269043 13.640625 5.571289
v -11.479004 13.184082 -5.577637
v -11.479004 13.184082 5.571289
v -12.269043 13.640625 -5.577637
v -12.269043 13.640625 5.571289
v -11.739746 14.306641 -5.577637
v -12.269043 13.640625 -5.577637
v -11.739746 14.306641 5.571289
v -0.868164 8.312988 5.564941
v 9.114746 2.549316 5.564941
v 9.114746 2.549316 -5.577637
v -12.269043 13.640625 5.571289
v -11.739746 14.306641 7.931152
v -11.739746 14.306641 5.571289
v -12.269043 13.640625 7.955566
v -11.479004 13.184082 5.571289
v -11.479004 13.184082 9.137695
v 10.500000 0.494629 9.113281
v -10.862793 14.083008 9.137695
v 11.147461 1.375977 9.113281
v -0.868164 8.312988 7.931152
v 9.114746 2.549316 7.912598
v -11.739746 14.306641 -7.955566
v -12.269043 13.640625 -5.577637
v -11.739746 14.306641 -5.577637
v -12.269043 13.640625 -7.955566
v -10.862793 14.083008 -9.137695
v -11.479004 13.184082 -9.137695
v 10.500000 0.494629 -9.113281
v -11.479004 13.184082 -5.577637
v 11.623535 -0.153809 -7.915039
v 12.269043 0.728516 7.910645
v 11.623535 -0.153809 7.910645
v -10.862793 14.083008 7.931152
v 11.147461 1.375977 -9.113281
v -0.868164 8.312988 -7.955566
v 9.114746 2.549316 -7.919434
v 12.269043 0.728516 -7.915039
v -10.862793 14.083008 -7.955566
v 0.568359 3.153809 -8.081055
v 3.006836 4.801758 -8.081055
v 1.337402 3.139648 -8.081055
v -7.000488 10.570313 -8.081055
v -7.478027 7.924316 -8.081055
v -8.388184 10.360840 -8.081055
v 3.006836 4.801758 8.081055
v 0.568359 3.153809 8.081055
v 1.337402 3.139648 8.081055
v -7.000488 10.570313 8.081055
v -8.388184 10.360840 8.081055
v -8.430176 11.394043 8.081055
v -7.478027 7.924316 8.081055
v -8.430176 11.394043 -8.081055
# 120 vertices

vt 0.369629 0.996704
vt 0.138641 0.841034
vt 0.138641 0.996704
vt 0.138641 0.144806
vt 0.369629 0.003204
vt 0.138641 0.003204
vt 0.402374 0.744232
vt 0.402374 0.669434
vt 0.402374 0.520905
vt 0.000977 0.915131
vt 0.134583 0.996002
vt 0.134583 0.915131
vt 0.000977 0.996002
vt 0.988708 0.669434
vt 0.989075 0.744232
vt 0.988708 0.520905
vt 0.002167 0.005707
vt 0.137207 0.856537
vt 0.002167 0.856537
vt 0.137207 0.005707
vt 0.342041 0.996704
vt 0.342102 0.006165
vt 0.888000 0.493134
vt 0.395630 0.002197
vt 0.395630 0.493134
vt 0.888000 0.002197
vt 0.397827 0.496124
vt 0.902893 0.002167
vt 0.396545 0.497375
vt -0.000488 1.224121
vt 0.998840 1.268860
vt -0.000488 1.268799
vt 0.998840 1.224121
vt 0.998840 0.626099
vt -0.000488 1.321106
vt 0.998840 1.366516
vt -0.000488 1.369141
vt 0.998840 1.321106
vt -0.000488 0.626099
vt -0.000488 0.000916
vt 0.998840 0.000916
vt 0.405396 -0.182617
vt 0.405396 -0.132111
vt 0.414185 -0.182617
vt 0.668884 -0.182617
vt 0.414185 -0.157776
vt 0.668884 -0.157776
vt 0.534760 -0.132111
vt 0.668884 -0.132111
vt 0.691986 -0.182617
vt 0.691986 -0.132111
vt 0.414185 -0.132111
vt -0.437927 0.873718
vt -0.488739 0.998993
vt -0.470428 0.908783
vt -0.037323 0.998993
vt -0.074005 0.873718
vt -0.032623 0.943512
vt -0.007172 0.998993
# 59 texture coordinates

vn 0.499931 0.866065 0.000000
vn 0.000000 0.000000 1.000000
vn 0.247103 0.968989 0.000000
vn 0.000857 0.005721 -0.999983
vn 0.000714 0.003814 -0.999992
vn 0.001287 0.011441 -0.999934
vn 0.000428 0.000000 -1.000000
vn 0.807072 -0.590453 0.000000
vn -1.000000 0.000000 0.000000
vn 1.000000 0.000000 0.000000
vn 0.377069 0.926185 0.000000
vn -0.500340 -0.865829 0.000000
vn -0.782881 0.622172 0.000000
vn -0.983629 0.180203 0.000000
vn -0.573084 0.802833 0.164421
vn -0.933736 -0.040685 0.355643
vn -0.625998 -0.486324 0.609603
vn -0.128320 -0.611142 0.781050
vn -0.008813 0.757096 0.653245
vn 0.649629 0.447189 0.614820
vn -0.575907 0.800022 -0.168213
vn -0.932540 -0.045837 -0.358147
vn -0.009659 0.754402 -0.656342
vn -0.625998 -0.486324 -0.609603
vn -0.128605 -0.610806 -0.781266
vn 0.260062 -0.726255 -0.636334
vn 0.772044 0.340169 0.536874
vn 0.260984 -0.726901 0.635218
vn 0.648955 0.447490 -0.615313
vn 0.771192 0.340721 -0.537747
# 30 normals

g cmn_obj_dashpanel_dif_SD
usemtl cmn_obj_dashpanel_dif_SD
s 1
f 107/53/7 108/54/7 109/55/7
f 107/53/7 110/56/7 108/54/7
f 111/57/7 110/56/7 107/53/7
f 111/57/7 112/58/7 110/56/7
f 113/54/2 114/53/2 115/55/2
f 113/54/2 116/56/2 114/53/2
f 117/58/2 116/56/2 118/59/2
f 117/58/2 119/57/2 116/56/2
f 119/57/2 114/53/2 116/56/2
f 120/59/7 110/56/7 112/58/7
# 10 triangles in group

g cmn_obj_jumpbelt_dif_SD
usemtl cmn_obj_jumpbelt_dif_SD
f 63/30/11 64/31/3 65/32/3
f 63/30/11 66/33/11 64/31/3
f 67/34/1 66/33/11 63/30/11
f 68/35/12 69/36/12 70/37/12
f 68/35/12 71/38/12 69/36/12
f 72/35/13 73/31/13 74/38/13
f 72/35/13 75/32/13 73/31/13
f 76/39/1 67/34/1 63/30/11
f 76/39/1 77/40/1 67/34/1
f 78/41/1 67/34/1 77/40/1
# 10 triangles in group

g cmn_obj_jumppanel_dif_SD
usemtl cmn_obj_jumppanel_dif_SD
f 79/42/14 80/43/15 81/43/13
f 79/42/14 82/42/16 80/43/15
f 83/44/12 82/42/16 79/42/14
f 83/44/12 84/44/17 82/42/16
f 85/45/18 84/44/17 83/44/12
f 85/45/18 86/46/19 84/44/17
f 87/47/20 86/46/19 85/45/18
f 87/47/20 88/48/1 86/46/19
f 89/49/1 88/48/1 87/47/20
f 90/43/21 91/42/14 92/43/13
f 90/43/21 93/42/22 91/42/14
f 94/46/23 93/42/22 90/43/21
f 94/46/23 95/44/24 93/42/22
f 96/45/25 95/44/24 94/46/23
f 96/45/25 97/44/12 95/44/24
f 98/50/26 97/44/12 96/45/25
f 87/47/20 99/51/27 89/49/1
f 87/47/20 100/50/28 99/51/27
f 85/45/18 100/50/28 87/47/20
f 85/45/18 83/44/12 100/50/28
f 86/46/19 82/42/16 84/44/17
f 86/46/19 80/43/15 82/42/16
f 101/52/11 80/43/15 86/46/19
f 102/47/29 103/48/1 104/49/1
f 102/47/29 94/46/23 103/48/1
f 96/45/25 94/46/23 102/47/29
f 102/47/29 98/50/26 96/45/25
f 102/47/29 105/51/30 98/50/26
f 104/49/1 105/51/30 102/47/29
f 97/44/12 93/42/22 95/44/24
f 97/44/12 91/42/14 93/42/22
f 106/52/11 94/46/23 90/43/21
f 106/52/11 103/48/1 94/46/23
f 86/46/19 88/48/1 101/52/11
# 34 triangles in group

g cmn_obj_jumppanel_dif_SD
usemtl cmn_obj_jumppanel_dif_SD
f 1/1/1 2/2/1 3/3/1
f 1/1/1 4/4/1 2/2/1
f 5/5/1 4/4/1 1/1/1
f 5/5/1 6/6/1 4/4/1
f 7/7/2 8/8/2 9/7/2
f 7/7/2 10/9/2 8/8/2
f 11/9/2 10/9/2 7/7/2
f 12/10/3 13/11/3 14/12/3
f 12/10/3 15/13/3 13/11/3
f 16/14/4 17/15/5 18/15/6
f 16/14/4 19/16/7 17/15/5
f 20/17/1 21/18/1 22/19/1
f 20/17/1 23/20/1 21/18/1
f 24/19/1 25/20/1 26/18/1
f 24/19/1 27/17/1 25/20/1
f 28/10/3 29/11/3 30/13/3
f 28/10/3 31/12/3 29/11/3
f 32/21/8 33/5/8 34/1/8
f 32/21/8 35/22/8 33/5/8
f 36/17/1 37/18/1 38/20/1
f 36/17/1 39/19/1 37/18/1
f 40/23/9 41/24/9 42/25/9
f 40/23/9 43/26/9 41/24/9
f 44/19/1 45/20/1 46/17/1
f 44/19/1 47/18/1 45/20/1
f 48/14/10 49/9/10 50/16/10
f 48/14/10 51/8/10 49/9/10
f 52/15/9 53/9/9 54/7/9
f 52/15/9 55/16/9 53/9/9
f 56/24/7 57/27/7 58/28/7
f 17/15/5 19/16/7 59/16/7
f 60/29/2 61/24/2 62/28/2
# 32 triangles in group

# 86 triangles total

